<?xml version="1.0" encoding="utf-8"?>
<!-- Generator: Adobe Illustrator 25.2.1, SVG Export Plug-In . SVG Version: 6.00 Build 0)  -->
<svg version="1.1" id="Layer_1" xmlns="http://www.w3.org/2000/svg" xmlns:xlink="http://www.w3.org/1999/xlink" x="0px" y="0px"
	 viewBox="0 0 512 512" style="enable-background:new 0 0 512 512;" xml:space="preserve">
<style type="text/css">
	.st0{fill:url(#SVGID_1_);stroke:#000000;stroke-width:2;stroke-miterlimit:10;}
	.st1{opacity:0.35;fill:#49494A;}
	.st2{fill:url(#SVGID_2_);stroke:#000000;stroke-width:6;stroke-miterlimit:10;}
	.st3{fill:url(#SVGID_3_);stroke:#000000;stroke-width:6;stroke-miterlimit:10;}
	.st4{fill:url(#SVGID_4_);stroke:#000000;stroke-width:6;stroke-miterlimit:10;}
	.st5{fill:url(#SVGID_5_);stroke:#000000;stroke-width:6;stroke-miterlimit:10;}
	.st6{fill:url(#SVGID_6_);stroke:#000000;stroke-width:6;stroke-miterlimit:10;}
	.st7{fill:url(#SVGID_7_);stroke:#000000;stroke-width:6;stroke-miterlimit:10;}
	.st8{fill:url(#SVGID_8_);stroke:#000000;stroke-width:6;stroke-miterlimit:10;}
	.st9{fill:url(#SVGID_9_);stroke:#000000;stroke-width:6;stroke-miterlimit:10;}
</style>
<linearGradient id="SVGID_1_" gradientUnits="userSpaceOnUse" x1="118.984" y1="384.3562" x2="468.2061" y2="71.3178">
	<stop  offset="0" style="stop-color:#FFFFFF"/>
	<stop  offset="0.8479" style="stop-color:#000000"/>
</linearGradient>
<path class="st0" d="M394.48,61.78c0,0-67.48-54.08-174.8-37.2c0,0-127.42,18.51-176.86,147.54c0,0-41.8,107.32,16.08,199.77
	c0,0,51.05,96.07,161.58,115.36c0,0,136.93,29.92,226.43-87.06c0,0,70.82-73.64,44.4-198.02c0,0-12.33-50.03-30.3-70.12
	c0,0,32.63,53.13,22.27,123.95c0,0-5.41,65.92-68.1,118.56c0,0-103.58,91.58-231.89,7.84c0,0-86.93-55.58-80.32-169.69
	c0,0,5.14-79.58,62.93-128.31c0,0,36.24-37.71,93.05-46.52c0,0,57.54-9.55,100.64,8.33C359.59,46.19,374.03,50.19,394.48,61.78z"/>
<ellipse transform="matrix(0.0583 -0.9983 0.9983 0.0583 -252.3196 491.1747)" class="st1" cx="134.19" cy="379.33" rx="32.13" ry="32.35"/>
<path class="st1" d="M352.57,473.94c0,0-230.21-10.1-234.69-115.1C117.88,358.84,190.74,284.06,352.57,473.94z"/>
<path class="st1" d="M398.46,406.44c0,0-213.88,84.98-261.52-8.91C136.95,397.53,172.3,299.56,398.46,406.44z"/>
<path class="st1" d="M118.66,121.89c0,0,104.38,204.11,14.5,259.49C133.16,381.39,31.73,355.03,118.66,121.89z"/>
<path class="st1" d="M44.3,159.26c0,0,170.6,153.98,106.44,237.49C150.74,396.76,46.54,407.93,44.3,159.26z"/>
<g>
	
		<radialGradient id="SVGID_2_" cx="110.2471" cy="279.8803" r="86.3157" gradientTransform="matrix(1.0068 -0.0122 0.0131 0.9999 -4.0663 2.5498)" gradientUnits="userSpaceOnUse">
		<stop  offset="0" style="stop-color:#59B3C8"/>
		<stop  offset="1" style="stop-color:#1E94B8"/>
	</radialGradient>
	<path class="st2" d="M54.75,172.28c0,0,156.77,141.25,97.98,217.69C152.73,389.97,57.1,400.08,54.75,172.28z"/>
	
		<radialGradient id="SVGID_3_" cx="144.4097" cy="253.7004" r="88.7214" gradientTransform="matrix(1.0068 -0.0122 0.0131 0.9999 -4.0663 2.5498)" gradientUnits="userSpaceOnUse">
		<stop  offset="0" style="stop-color:#59B3C8"/>
		<stop  offset="1" style="stop-color:#1E94B8"/>
	</radialGradient>
	<path class="st3" d="M140.93,135.25c0,0,91.93,189.4,8.62,238.44C149.54,373.68,57.13,347.47,140.93,135.25z"/>
	
		<radialGradient id="SVGID_4_" cx="182.3828" cy="263.7735" r="86.7187" gradientTransform="matrix(1.0068 -0.0122 0.0131 0.9999 -4.0663 2.5498)" gradientUnits="userSpaceOnUse">
		<stop  offset="0" style="stop-color:#59B3C8"/>
		<stop  offset="1" style="stop-color:#1E94B8"/>
	</radialGradient>
	<path class="st4" d="M237.32,153.98c0,0,2.92,210.38-93.38,220.02C143.94,374,71.33,311.53,237.32,153.98z"/>
	
		<radialGradient id="SVGID_5_" cx="232.1628" cy="408.5312" r="86.3809" gradientTransform="matrix(1.0068 -0.0122 0.0131 0.9999 -4.0663 2.5498)" gradientUnits="userSpaceOnUse">
		<stop  offset="0" style="stop-color:#59B3C8"/>
		<stop  offset="1" style="stop-color:#1E94B8"/>
	</radialGradient>
	<path class="st5" d="M342.74,467.31c0,0-135.53-162.2-215.04-107.28C127.69,360.03,113.39,454.57,342.74,467.31z"/>
	
		<radialGradient id="SVGID_6_" cx="261.2379" cy="372.377" r="88.6716" gradientTransform="matrix(1.0068 -0.0122 0.0131 0.9999 -4.0663 2.5498)" gradientUnits="userSpaceOnUse">
		<stop  offset="0" style="stop-color:#59B3C8"/>
		<stop  offset="1" style="stop-color:#1E94B8"/>
	</radialGradient>
	<path class="st6" d="M383.75,383.39c0,0-186.81-99.98-239.79-19.45C143.96,363.94,166.38,456.94,383.75,383.39z"/>
	
		<radialGradient id="SVGID_7_" cx="254.2465" cy="337.4659" r="86.9921" gradientTransform="matrix(1.0068 -0.0122 0.0131 0.9999 -4.0663 2.5498)" gradientUnits="userSpaceOnUse">
		<stop  offset="0" style="stop-color:#59B3C8"/>
		<stop  offset="1" style="stop-color:#1E94B8"/>
	</radialGradient>
	<path class="st7" d="M369.03,286.76c0,0-211.77-12.51-225.62,82.72C143.41,369.49,203.19,444.48,369.03,286.76z"/>
	
		<radialGradient id="SVGID_8_" cx="228.8185" cy="291.2078" r="86.0524" gradientTransform="matrix(1.0068 -0.0122 0.0131 0.9999 -4.0663 2.5498)" gradientUnits="userSpaceOnUse">
		<stop  offset="0" style="stop-color:#59B3C8"/>
		<stop  offset="1" style="stop-color:#1E94B8"/>
	</radialGradient>
	<path class="st8" d="M318.95,207.18c0,0-200.13,69.7-175.87,162.89C143.08,370.07,227.37,416.32,318.95,207.18z"/>
	
		<radialGradient id="SVGID_9_" cx="139.0233" cy="372.4569" r="32.1323" gradientTransform="matrix(1.0068 -0.0122 0.0131 0.9999 -4.0663 2.5498)" gradientUnits="userSpaceOnUse">
		<stop  offset="0" style="stop-color:#59B3C8"/>
		<stop  offset="1" style="stop-color:#1E94B8"/>
	</radialGradient>
	<path class="st9" d="M162.86,396.8c-13.06,12.1-33.54,11.38-45.73-1.6s-11.49-33.32,1.58-45.41c13.06-12.1,33.54-11.38,45.73,1.6
		S175.92,384.7,162.86,396.8z"/>
</g>
</svg>
